<mxfile host="Drawpyo" modified="2024-06-12T11:47:54" agent="Python 3.11, Drawpyo 0.01" version="21.6.5" type="device">
  <diagram name="Page-1" id="140159628704720">
    <mxGraphModel dx="2037" dy="830" grid="1" gridSize="10" guides="1" toolTips="1" connect="1" arrows="1" fold="1" page="1" pageScale="1" pageWidth="850" pageHeight="1100" math="0" shadow="0">
      <root>
        <mxCell id="0" />
        <mxCell id="1" parent="0" />
        <mxCell id="140159628967376" value="FH状态" style="whiteSpace=wrap;rounded=0;fillColor=#fff2cc;strokeColor=#d6b656;dashed=0;" vertex="1" parent="1">
  <mxGeometry x="100" y="100" width="120" height="80" as="geometry" />
</mxCell>
        <mxCell id="140159628697296" value="Node 2" style="whiteSpace=wrap;rounded=0;fillColor=#d5e8d4;strokeColor=#82b366;dashed=0;" vertex="1" parent="1">
  <mxGeometry x="360" y="100" width="120" height="80" as="geometry" />
</mxCell>
        <mxCell id="140159628964432" value="小区状态" style="whiteSpace=wrap;rounded=0;fillColor=#fff2cc;strokeColor=#d6b656;dashed=0;" vertex="1" parent="1">
  <mxGeometry x="100" y="280" width="120" height="80" as="geometry" />
</mxCell>
        <mxCell id="140159628968976" value="Node 4" style="whiteSpace=wrap;rounded=0;dashed=0;" vertex="1" parent="1">
  <mxGeometry x="360" y="350" width="120" height="80" as="geometry" />
</mxCell>
        <mxCell id="140159628978256" style="edgeStyle=orthogonalEdgeStyle;orthogonalLoop=1;rounded=0;jettySize=auto;entryX=0.5;entryY=0;entryDx=0;entryDy=0;" edge="1" parent="1" source="140159628967376" target="140159628964432" value="yes">
  <mxGeometry relative="1" as="geometry" />
</mxCell>
        <mxCell id="140159628956304" style="edgeStyle=orthogonalEdgeStyle;orthogonalLoop=1;rounded=0;jettySize=auto;entryX=0;entryY=0.5;entryDx=0;entryDy=0;" edge="1" parent="1" source="140159628967376" target="140159628697296" value="no">
  <mxGeometry relative="1" as="geometry" />
</mxCell>
        <mxCell id="140159628978384" style="edgeStyle=orthogonalEdgeStyle;orthogonalLoop=1;rounded=0;jettySize=auto;entryX=0.5;entryY=0;entryDx=0;entryDy=0;" edge="1" parent="1" source="140159628697296" target="140159628968976" value="yes">
  <mxGeometry relative="1" as="geometry" />
</mxCell>
      </root>
    </mxGraphModel>
  </diagram>
</mxfile>